<svg height="910.222" viewBox="-21 -21 682.667 682.667" width="910.222" xmlns="http://www.w3.org/2000/svg"><g fill-rule="evenodd"><path d="M112.5 87.5c0 13.809-11.191 25-25 25s-25-11.191-25-25 11.191-25 25-25 25 11.191 25 25zm0 465c0 13.805-11.191 25-25 25s-25-11.195-25-25c0-13.809 11.191-25 25-25s25 11.191 25 25zm465 0c0 13.805-11.195 25-25 25-13.809 0-25-11.195-25-25 0-13.809 11.191-25 25-25 13.805 0 25 11.191 25 25zm0-465c0 13.809-11.191 25-25 25s-25-11.191-25-25 11.191-25 25-25 25 11.191 25 25zm0 0" fill="#b278d3"/><path d="M552.5 112.5c-13.809 0-25-11.191-25-25s11.191-25 25-25 25 11.191 25 25-11.195 25-25 25zm50-100h-565c-13.75 0-25 11.25-25 25v565c0 13.75 11.25 25 25 25h565c13.75 0 25-11.25 25-25v-565c0-13.75-11.25-25-25-25zm-220 75c13.75 0 25 11.25 25 25s-11.25 25-25 25h-125c-13.75 0-25-11.25-25-25s11.25-25 25-25zM470 191.25c13.75 0 25 11.25 25 25s-11.25 25-25 25H170c-13.75 0-25-11.25-25-25s11.25-25 25-25zM112.5 295h415c13.75 0 25 11.25 25 25s-11.25 25-25 25h-415c-13.75 0-25-11.25-25-25s11.25-25 25-25zm415 257.5c0-13.809 11.191-25 25-25 13.805 0 25 11.191 25 25 0 13.805-11.195 25-25 25-13.809 0-25-11.195-25-25zM170 398.75h300c13.75 0 25 11.25 25 25s-11.25 25-25 25H170c-13.75 0-25-11.25-25-25s11.25-25 25-25zM87.5 527.5c13.809 0 25 11.191 25 25 0 13.805-11.191 25-25 25s-25-11.195-25-25c0-13.809 11.191-25 25-25zm170-25h125c13.75 0 25 11.25 25 25s-11.25 25-25 25h-125c-13.75 0-25-11.25-25-25s11.25-25 25-25zm-145-415c0 13.809-11.191 25-25 25s-25-11.191-25-25 11.191-25 25-25 25 11.191 25 25zm0 0" fill="#d1aee5"/><path d="M382.5 137.5c13.75 0 25-11.25 25-25s-11.25-25-25-25h-125c-13.75 0-25 11.25-25 25s11.25 25 25 25zm87.5 53.75H170c-13.75 0-25 11.25-25 25s11.25 25 25 25h300c13.75 0 25-11.25 25-25s-11.25-25-25-25zM527.5 295h-415c-13.75 0-25 11.25-25 25s11.25 25 25 25h415c13.75 0 25-11.25 25-25s-11.25-25-25-25zM470 398.75H170c-13.75 0-25 11.25-25 25s11.25 25 25 25h300c13.75 0 25-11.25 25-25s-11.25-25-25-25zM382.5 502.5h-125c-13.75 0-25 11.25-25 25s11.25 25 25 25h125c13.75 0 25-11.25 25-25s-11.25-25-25-25zm0 0" fill="#b278d3"/></g><path d="M602.5 0H200c-6.906 0-12.5 5.594-12.5 12.5S193.094 25 200 25h402.5c6.89 0 12.5 5.605 12.5 12.5v565c0 6.895-5.61 12.5-12.5 12.5h-565c-6.895 0-12.5-5.605-12.5-12.5v-565C25 30.605 30.605 25 37.5 25h50c6.906 0 12.5-5.594 12.5-12.5S94.406 0 87.5 0h-50C16.82 0 0 16.82 0 37.5v565C0 623.18 16.82 640 37.5 640h565c20.68 0 37.5-16.82 37.5-37.5v-565C640 16.82 623.18 0 602.5 0zm0 0"/><path d="M50 87.5c0 20.68 16.82 37.5 37.5 37.5S125 108.18 125 87.5 108.18 50 87.5 50 50 66.82 50 87.5zm50 0c0 6.895-5.605 12.5-12.5 12.5-6.89 0-12.5-5.605-12.5-12.5C75 80.61 80.61 75 87.5 75c6.895 0 12.5 5.61 12.5 12.5zm-50 465c0 20.672 16.82 37.5 37.5 37.5s37.5-16.828 37.5-37.5c0-20.68-16.82-37.5-37.5-37.5S50 531.82 50 552.5zm50 0c0 6.89-5.605 12.5-12.5 12.5S75 559.39 75 552.5c0-6.895 5.605-12.5 12.5-12.5s12.5 5.605 12.5 12.5zM552.5 515c-20.68 0-37.5 16.82-37.5 37.5s16.82 37.5 37.5 37.5c20.672 0 37.5-16.82 37.5-37.5S573.172 515 552.5 515zm0 50c-6.895 0-12.5-5.61-12.5-12.5 0-6.895 5.605-12.5 12.5-12.5 6.89 0 12.5 5.605 12.5 12.5 0 6.89-5.61 12.5-12.5 12.5zm0-515C531.82 50 515 66.82 515 87.5s16.82 37.5 37.5 37.5c20.672 0 37.5-16.82 37.5-37.5S573.172 50 552.5 50zm0 50c-6.895 0-12.5-5.605-12.5-12.5 0-6.89 5.605-12.5 12.5-12.5 6.89 0 12.5 5.61 12.5 12.5 0 6.895-5.61 12.5-12.5 12.5zm-420 116.25c0 20.68 16.82 37.5 37.5 37.5h300c20.672 0 37.5-16.82 37.5-37.5s-16.828-37.5-37.5-37.5H170c-20.68 0-37.5 16.82-37.5 37.5zm350 0c0 6.895-5.61 12.5-12.5 12.5H170c-6.895 0-12.5-5.605-12.5-12.5 0-6.89 5.605-12.5 12.5-12.5h300c6.89 0 12.5 5.61 12.5 12.5zm-12.5 220c-6.906 0-12.5 5.594-12.5 12.5s5.594 12.5 12.5 12.5c20.672 0 37.5-16.82 37.5-37.5s-16.828-37.5-37.5-37.5H170c-20.68 0-37.5 16.82-37.5 37.5s16.82 37.5 37.5 37.5h187.5c6.898 0 12.5-5.594 12.5-12.5s-5.602-12.5-12.5-12.5H170c-6.895 0-12.5-5.61-12.5-12.5 0-6.895 5.605-12.5 12.5-12.5h300c6.89 0 12.5 5.605 12.5 12.5 0 6.89-5.61 12.5-12.5 12.5zM75 320c0 20.68 16.82 37.5 37.5 37.5h415c20.672 0 37.5-16.82 37.5-37.5s-16.828-37.5-37.5-37.5h-415C91.82 282.5 75 299.32 75 320zm465 0c0 6.895-5.61 12.5-12.5 12.5h-415c-6.89 0-12.5-5.605-12.5-12.5s5.61-12.5 12.5-12.5h415c6.89 0 12.5 5.605 12.5 12.5zM382.5 150c20.68 0 37.5-16.82 37.5-37.5S403.18 75 382.5 75h-125c-20.68 0-37.5 16.82-37.5 37.5s16.82 37.5 37.5 37.5zM245 112.5c0-6.89 5.605-12.5 12.5-12.5h125c6.895 0 12.5 5.61 12.5 12.5 0 6.895-5.605 12.5-12.5 12.5h-125c-6.895 0-12.5-5.605-12.5-12.5zM382.5 490h-125c-20.68 0-37.5 16.82-37.5 37.5s16.82 37.5 37.5 37.5h125c20.68 0 37.5-16.82 37.5-37.5S403.18 490 382.5 490zm0 50h-125c-6.895 0-12.5-5.61-12.5-12.5 0-6.895 5.605-12.5 12.5-12.5h125c6.895 0 12.5 5.605 12.5 12.5 0 6.89-5.605 12.5-12.5 12.5zM143.754 25c6.906 0 12.5-5.594 12.5-12.5S150.66 0 143.754 0h-.008c-6.906 0-12.496 5.594-12.496 12.5S136.852 25 143.754 25zm0 0"/><path d="M426.254 448.75c0-6.906-5.598-12.5-12.5-12.5h-.008c-6.906 0-12.496 5.594-12.496 12.5s5.602 12.5 12.504 12.5c6.906 0 12.5-5.594 12.5-12.5zm0 0"/></svg>