<svg height="682pt" viewBox="-53 -21 682 682.665" width="682pt" xmlns="http://www.w3.org/2000/svg"><g fill-rule="evenodd"><path d="M155.664 62.5h150c13.75 0 25-11.25 25-25 0-13.754-11.25-25-25-25h-150c-13.75 0-25 11.25-25 25s11.25 25 25 25zm0 0" fill="#ff5d7d"/><path d="M155.664 125h150v50h-150zm0 0" fill="#b278d3"/><path d="M305.664 175h-245v124.996h65.008c21.652 37.512 61.68 60.617 104.992 60.617 43.316 0 83.34-23.105 105-60.617 23.274 0 45.32 9.32 61.75 25.75s25.75 38.477 25.75 61.75H548.16c0-56.496-22.453-110.207-62.367-150.129C445.871 197.445 392.16 175 335.664 175zm0 0" fill="#d1aee5"/><path d="M60.664 300V125h-50v224.996h50zm362.5 87.496h-12.5v50h150v-50zm0 0" fill="#b278d3"/><path d="M485.664 477.5c-15.48 16.973-55.75 58.223-55.75 94.25 0 30.79 24.961 55.75 55.75 55.75 30.785 0 55.746-24.96 55.746-55.75 0-36.027-40.262-77.277-55.746-94.25zm0 0" fill="#00ccf2"/><path d="M205.664 62.813h50v61.874h-50zm0 0" fill="#e3eaef"/></g><path d="M560.664 374.996h-.355c-3.028-55.246-26.07-106.855-65.68-146.465-42.582-42.578-99.035-66.031-158.965-66.031h-17.5V125c0-6.906-5.594-12.5-12.5-12.5h-37.5V75h37.5c20.68 0 37.5-16.82 37.5-37.5S326.344 0 305.664 0h-37.5c-6.902 0-12.5 5.594-12.5 12.5 0 6.902 5.598 12.5 12.5 12.5h37.5c6.895 0 12.5 5.605 12.5 12.5S312.56 50 305.664 50h-150c-6.887 0-12.5-5.605-12.5-12.5s5.613-12.5 12.5-12.5c6.906 0 12.5-5.598 12.5-12.5 0-6.906-5.594-12.5-12.5-12.5-20.672 0-37.5 16.82-37.5 37.5s16.828 37.5 37.5 37.5h37.5v37.5h-37.5c-6.902 0-12.5 5.594-12.5 12.5v37.5h-70V125c0-6.906-5.594-12.5-12.5-12.5h-50c-6.902 0-12.5 5.594-12.5 12.5v224.996c0 6.902 5.598 12.5 12.5 12.5h50c6.906 0 12.5-5.598 12.5-12.5v-37.5h45.523c24.551 37.57 66.801 60.625 111.977 60.625 45.05 0 87.2-22.93 111.785-60.32 17.332 1.578 33.508 9.172 46.121 21.789 11.23 11.226 18.461 25.281 21.032 40.457-6.407.543-11.438 5.906-11.438 12.45v50c0 6.901 5.598 12.5 12.5 12.5h150c6.898 0 12.5-5.599 12.5-12.5v-50c0-6.903-5.602-12.5-12.5-12.5zM218.164 75h25v37.5h-25zm-50 62.5h125v25h-125zm-120 199.996h-25V137.5h25zm287.5-49.996a12.489 12.489 0 0 0-10.824 6.25c-19.363 33.535-55.45 54.371-94.176 54.371-38.723 0-74.809-20.836-94.168-54.371a12.494 12.494 0 0 0-10.824-6.25H73.164v-100h262.5c53.254 0 103.43 20.848 141.29 58.71 34.882 34.884 55.308 80.224 58.312 128.786H510.21c-1.488-21.062-6.738-41.437-15.684-60.734-2.906-6.266-10.343-8.985-16.601-6.078-6.266 2.898-8.985 10.336-6.078 16.597 7.406 15.969 11.859 32.817 13.3 50.215h-50.293c-2.75-21.844-12.648-42.125-28.605-58.086-18.969-18.965-44.035-29.41-70.586-29.41zm212.5 137.496h-125v-25h125zm-53.266 44.082a12.5 12.5 0 0 0-18.472 0c-.977 1.067-2.051 2.235-3.207 3.488-18.114 19.664-55.805 60.579-55.805 99.184 0 37.633 30.613 68.25 68.246 68.25 37.637 0 68.25-30.617 68.25-68.25 0-38.605-37.687-79.516-55.8-99.172-1.157-1.262-2.235-2.433-3.212-3.5zM485.664 615c-23.848 0-43.25-19.402-43.25-43.25 0-25.617 26.2-56.922 43.25-75.75 17.047 18.824 43.246 50.133 43.246 75.75 0 23.848-19.398 43.25-43.246 43.25zm0 0"/><path d="M211.922 25c6.902 0 12.5-5.598 12.5-12.5 0-6.906-5.598-12.5-12.5-12.5h-.012c-6.898 0-12.496 5.594-12.496 12.5 0 6.902 5.602 12.5 12.508 12.5zm238.516 260.223c3.203 0 6.394-1.22 8.835-3.657 4.883-4.882 4.883-12.796 0-17.68l-.003-.011c-4.883-4.871-12.793-4.871-17.676.008-4.883 4.883-4.88 12.8.004 17.683a12.472 12.472 0 0 0 8.84 3.657zm0 0"/></svg>