<svg height="908" viewBox="-21 -54 681.335 681" width="908" xmlns="http://www.w3.org/2000/svg"><g fill-rule="evenodd"><path d="M112.363 284.86V147.628H62.461v149.707h49.902zm0 0" fill="#b278d3"/><path d="M169.75 160.105h-57.387V284.86h38.676v174.657h124.754V303.344c-61.379-18.688-106.043-75.75-106.043-143.239zm0 0" fill="#d1aee5"/><path d="M275.793 459.516h-137.23v49.902H288.27v-49.902zm74.855 0v49.902H500.36v-49.902zm0 0" fill="#b278d3"/><path d="M363.125 459.516h124.758V284.859h38.672V160.105h-57.387c0 67.489-44.66 124.551-106.043 143.235zm0 0" fill="#d1aee5"/><path d="M526.555 160.105v137.23h49.902V147.63h-49.902zm0 0" fill="#b278d3"/><path d="M319.457 259.91c55.125 0 99.809-44.683 99.809-99.805 0-55.12-44.684-99.804-99.809-99.804-55.121 0-99.805 44.683-99.805 99.804 0 55.122 44.684 99.805 99.805 99.805zm0-87.328c13.785 0 24.953 11.168 24.953 24.95s-11.168 24.952-24.953 24.952c-13.781 0-24.95-11.172-24.95-24.953s11.169-24.949 24.95-24.949zm0 0" fill="#e3eaef"/><path d="M344.41 197.531c0 13.781-11.168 24.953-24.953 24.953-13.781 0-24.95-11.172-24.95-24.953s11.169-24.949 24.95-24.949c13.785 0 24.953 11.168 24.953 24.95zm0 0" fill="#ff5d7d"/><path d="M419.266 160.105c0 55.122-44.684 99.805-99.809 99.805-55.121 0-99.805-44.683-99.805-99.805 0-55.12 44.684-99.804 99.805-99.804 55.125 0 99.809 44.683 99.809 99.804zM363.125 303.34c61.383-18.684 106.043-75.746 106.043-143.235 0-82.68-67.027-149.707-149.711-149.707-82.68 0-149.707 67.028-149.707 149.707 0 67.489 44.664 124.551 106.043 143.239 13.816 4.203 28.477 6.469 43.664 6.469 15.191 0 29.855-2.266 43.668-6.473zm0 0" fill="#b278d3"/><path d="M12.559 172.582H62.46v99.805H12.559zm150.953 336.836h99.808v49.902h-99.808zm212.086 0h99.804v49.902h-99.804zm200.859-336.836h49.902v99.805h-49.902zm0 0" fill="#cff5fd"/></g><path d="M626.36 259.91h-37.426v-74.855h37.425c6.891 0 12.477-5.582 12.477-12.473s-5.586-12.477-12.477-12.477h-37.425V147.63c0-6.89-5.59-12.477-12.477-12.477h-49.902c-6.89 0-12.477 5.586-12.477 12.477h-32.914C474.774 64.008 404.687-2.078 319.457-2.078c-85.227 0-155.316 66.086-161.707 149.707h-32.91c0-6.89-5.586-12.477-12.477-12.477H62.461c-6.89 0-12.477 5.586-12.477 12.477v12.476H12.56c-6.891 0-12.477 5.586-12.477 12.477s5.586 12.473 12.477 12.473h37.425v74.855H12.56c-6.891 0-12.477 5.586-12.477 12.477s5.586 12.472 12.477 12.472h37.425v12.477c0 6.89 5.586 12.476 12.477 12.476h49.902c6.89 0 12.477-5.585 12.477-12.476h13.722v149.703c-6.89 0-12.476 5.586-12.476 12.477v49.902c0 6.89 5.586 12.473 12.476 12.473h12.477v37.43c0 6.89 5.582 12.476 12.473 12.476 6.894 0 12.476-5.586 12.476-12.477v-37.43h74.856v37.43c0 6.89 5.582 12.477 12.476 12.477 6.883 0 12.473-5.586 12.473-12.477v-37.43h12.477c6.89 0 12.476-5.581 12.476-12.472v-49.902c0-6.891-5.586-12.477-12.476-12.477V319.266a162.531 162.531 0 0 0 31.187 3.023c10.668 0 21.094-1.05 31.191-3.023v127.773c-6.89 0-12.476 5.586-12.476 12.477v49.902c0 6.89 5.586 12.473 12.476 12.473h12.477v37.43c0 6.89 5.582 12.476 12.473 12.476s12.476-5.586 12.476-12.477v-37.43h74.856v37.43c0 6.89 5.582 12.477 12.472 12.477s12.477-5.586 12.477-12.477v-37.43h12.476c6.891 0 12.477-5.581 12.477-12.472v-49.902c0-6.891-5.586-12.477-12.477-12.477H375.598V312.262c58.12-21.508 100.652-75.418 105.566-139.68h32.914v99.805h-26.2c-6.89 0-12.476 5.582-12.476 12.472v62.375c0 6.891 5.586 12.477 12.477 12.477s12.476-5.586 12.476-12.477v-49.898h13.723c0 6.89 5.586 12.476 12.477 12.476h49.902c6.887 0 12.477-5.585 12.477-12.476v-12.477h37.425c6.891 0 12.477-5.582 12.477-12.472s-5.586-12.477-12.477-12.477zM487.878 496.941H363.125v-24.953h124.754zM99.887 284.86h-24.95V160.105h24.95zm175.906 212.082H151.039v-24.953h124.754zM263.32 447.04h-99.808V284.86c0-6.89-5.582-12.472-12.473-12.472h-26.2v-99.805h32.915c4.91 64.266 47.445 118.172 105.566 139.68zm56.137-149.703c-75.664 0-137.23-61.563-137.23-137.23 0-75.672 61.566-137.235 137.23-137.235 75.668 0 137.234 61.563 137.234 137.234 0 75.668-61.558 137.23-137.234 137.23zM563.98 284.86h-24.949V160.105h24.95zm0 0"/><path d="M319.457 47.824c-61.91 0-112.277 50.371-112.277 112.281 0 37.168 18.36 71.875 49.12 92.836a12.475 12.475 0 0 0 17.336-3.285c3.88-5.691 2.407-13.457-3.284-17.336a87.36 87.36 0 0 1-37.32-59.738h2.386c6.89 0 12.477-5.586 12.477-12.477s-5.586-12.476-12.477-12.476h-2.383a86.43 86.43 0 0 1 5.352-19.926l2.05 1.184a12.393 12.393 0 0 0 6.223 1.675 12.48 12.48 0 0 0 10.82-6.242c3.446-5.965 1.399-13.597-4.566-17.043l-2.016-1.164a87.891 87.891 0 0 1 14.57-14.57l1.165 2.016c2.308 4.004 6.504 6.238 10.812 6.238 2.117 0 4.266-.54 6.23-1.672 5.966-3.445 8.012-11.074 4.567-17.04l-1.187-2.054a86.403 86.403 0 0 1 19.93-5.347v2.382c0 6.891 5.581 12.473 12.472 12.473 6.895 0 12.477-5.582 12.477-12.473v-2.382a86.34 86.34 0 0 1 19.921 5.347l-1.183 2.055c-3.445 5.965-1.399 13.594 4.566 17.039a12.467 12.467 0 0 0 17.043-4.566l1.164-2.016a88.064 88.064 0 0 1 14.575 14.57l-2.02 1.164c-5.965 3.446-8.008 11.078-4.562 17.043a12.46 12.46 0 0 0 17.035 4.567l2.054-1.184a86.424 86.424 0 0 1 5.348 19.926H403.5c-6.89 0-12.477 5.586-12.477 12.476s5.586 12.477 12.477 12.477h2.383a87.385 87.385 0 0 1-37.313 59.734c-5.691 3.88-7.164 11.645-3.277 17.336 3.879 5.692 11.64 7.164 17.332 3.286 30.75-20.965 49.11-55.668 49.11-92.833.003-61.91-50.368-112.28-112.278-112.28zm0 0"/><path d="M331.934 162.25v-41.438c0-6.89-5.582-12.476-12.477-12.476-6.89 0-12.473 5.586-12.473 12.476v41.438c-14.523 5.148-24.953 19.02-24.953 35.281 0 20.637 16.79 37.426 37.426 37.426 20.64 0 37.43-16.789 37.43-37.426 0-16.261-10.43-30.133-24.953-35.281zm-12.477 47.758c-6.879 0-12.473-5.594-12.473-12.477 0-6.879 5.594-12.476 12.473-12.476 6.883 0 12.477 5.597 12.477 12.476 0 6.883-5.594 12.477-12.477 12.477zm.012 37.426h-.012c-6.89 0-12.469 5.586-12.469 12.476s5.59 12.477 12.48 12.477 12.477-5.586 12.477-12.477-5.586-12.476-12.476-12.476zm168.41 143.464c-6.89 0-12.477 5.59-12.477 12.48s5.586 12.477 12.477 12.477 12.476-5.585 12.476-12.476v-.008c0-6.89-5.585-12.473-12.476-12.473zm0 0"/></svg>