<svg height="682pt" viewBox="-21 -53 682.665 682" width="682pt" xmlns="http://www.w3.org/2000/svg"><g fill-rule="evenodd"><path d="M62.5 110.672V35.664c0-13.75-11.25-25-25-25s-25 11.25-25 25v525h50zm0 0" fill="#d1aee5"/><path d="M62.5 35.664h50v75.008h-50zm0 0" fill="#b278d3"/><path d="M112.5 35.664V435.66c0 13.75 11.25 25 25 25s25-11.25 25-25V35.664c0-13.75-11.25-25-25-25s-25 11.25-25 25zm0 0" fill="#d1aee5"/><path d="M162.5 35.664h50v75.008h-50zm0 0" fill="#b278d3"/><path d="M212.5 35.664V435.66c0 13.75 11.25 25 25 25s25-11.25 25-25V35.664c0-13.75-11.25-25-25-25s-25 11.25-25 25zm0 0" fill="#d1aee5"/><path d="M262.5 35.664h50v75.008h-50zm100 0h50v75.008h-50zm0 0" fill="#b278d3"/><path d="M362.5 110.672V35.664c0-13.75-11.25-25-25-25s-25 11.25-25 25V435.66c0 13.75 11.25 25 25 25s25-11.25 25-25zm50-75.008v525h50v-525c0-13.75-11.25-25-25-25s-25 11.25-25 25zm0 0" fill="#d1aee5"/><path d="M462.5 60.672h50v50h-50zm0 0" fill="#b278d3"/><path d="M512.5 60.672v62.5h65v-75h-65zm0 0" fill="#ff764e"/><path d="M577.5 60.672h50v50h-50zM62.5 360.66h50v75h-50zm100 0h50v75h-50zm100 0h50v75h-50zm100 0h50v75h-50zm100 25.004h50v49.996h-50zm0 0" fill="#b278d3"/><path d="M512.5 385.664v62.5h65V373.16h-65zm0 0" fill="#00ccf2"/><path d="M577.5 385.664h50v49.996h-50zm0 0" fill="#b278d3"/></g><path d="M512.5 135.672h65c6.902 0 12.5-5.602 12.5-12.5h37.5c6.902 0 12.5-5.602 12.5-12.5v-50c0-6.906-5.598-12.5-12.5-12.5H590c0-6.906-5.598-12.5-12.5-12.5h-65c-6.906 0-12.5 5.594-12.5 12.5h-25V35.664c0-20.676-16.82-37.5-37.5-37.5-16.293 0-30.191 10.457-35.352 25h-29.296c-5.16-14.543-19.059-25-35.352-25-16.3 0-30.191 10.457-35.352 25h-29.296c-5.16-14.543-19.059-25-35.352-25-16.3 0-30.191 10.457-35.352 25h-29.296c-5.16-14.543-19.059-25-35.352-25s-30.191 10.457-35.352 25H72.852c-5.16-14.543-19.059-25-35.352-25-20.68 0-37.5 16.824-37.5 37.5 0 6.906 5.594 12.5 12.5 12.5 6.902 0 12.5-5.594 12.5-12.5 0-6.887 5.605-12.5 12.5-12.5S50 28.777 50 35.664v512.5H25v-400c0-6.902-5.598-12.5-12.5-12.5-6.906 0-12.5 5.598-12.5 12.5v412.5c0 6.906 5.594 12.5 12.5 12.5h50c6.902 0 12.5-5.594 12.5-12.5V448.16h27.148c5.16 14.55 19.051 25 35.352 25 16.293 0 30.191-10.45 35.352-25h29.296c5.16 14.55 19.051 25 35.352 25 16.293 0 30.191-10.45 35.352-25h29.296c5.16 14.55 19.051 25 35.352 25 16.293 0 30.191-10.45 35.352-25H400v112.504c0 6.906 5.594 12.5 12.5 12.5h50c6.898 0 12.5-5.594 12.5-12.5V548.16c0-6.898-5.602-12.5-12.5-12.5-6.906 0-12.5 5.602-12.5 12.5l-25 .004V35.655c.004-6.886 5.61-12.492 12.5-12.492 6.895 0 12.5 5.613 12.5 12.5V435.66c0 6.906 5.594 12.5 12.5 12.5H500v.004c0 6.902 5.594 12.5 12.5 12.5h65.004c6.898 0 12.5-5.598 12.5-12.5v-.004H627.5c6.902 0 12.5-5.594 12.5-12.5v-49.996c0-6.902-5.598-12.5-12.5-12.5h-37.496c0-6.902-5.602-12.5-12.5-12.5H512.5c-6.906 0-12.5 5.598-12.5 12.5h-25V123.172h25c0 6.902 5.594 12.5 12.5 12.5zM375 48.164h25v50.008h-25zm0 75.008h25V348.16h-25zm-100 0h25V348.16h-25zm25-25h-25V48.164h25zM275 373.16h25v50h-25zM175 123.172h25V348.16h-25zm25-25h-25V48.164h25zM175 373.16h25v50h-25zM100 98.172H75V48.164h25zm-25 25h25V348.16H75zm0 249.988h25v50H75zm62.5 75c-6.895 0-12.5-5.605-12.5-12.5V35.664c0-6.887 5.605-12.5 12.5-12.5s12.5 5.613 12.5 12.5V435.66c0 6.895-5.605 12.5-12.5 12.5zm100 0c-6.89 0-12.496-5.601-12.5-12.484V35.655c.004-6.886 5.61-12.492 12.5-12.492 6.895 0 12.5 5.613 12.5 12.5V435.66c0 6.895-5.61 12.5-12.5 12.5zm112.5-12.5c0 6.895-5.61 12.5-12.5 12.5s-12.496-5.601-12.5-12.484V35.655c.004-6.886 5.61-12.492 12.5-12.492 6.895 0 12.5 5.613 12.5 12.5zm25-12.5v-50h25v50zM615 73.172v25h-25v-25zm-90-12.5h40v50h-40zm90 337.492v24.996h-25v-24.996zm-50-12.5v50h-40v-50zm-65 12.5v24.996h-25v-24.996zM475 98.172v-25h25v25zm0 0"/><path d="M12.5 104.422c6.902 0 12.5-5.602 12.5-12.5v-.012c0-6.902-5.598-12.496-12.5-12.496-6.906 0-12.5 5.602-12.5 12.508 0 6.902 5.594 12.5 12.5 12.5zm450 374.988c-6.906 0-12.5 5.606-12.5 12.504 0 6.906 5.594 12.5 12.5 12.5 6.898 0 12.5-5.594 12.5-12.5v-.008c0-6.902-5.602-12.496-12.5-12.496zm0 0"/></svg>