<svg height="908" viewBox="-21 -62 681.334 681" width="908" xmlns="http://www.w3.org/2000/svg"><g fill-rule="evenodd"><path d="m169.121 71.445-49.781 86.227-12.488 21.621 43.218 24.953 6.246-10.82L218.574 85.59l6.348-10.992-43.215-24.953zm0 0" fill="#b278d3"/><path d="m218.574 85.59-62.258 107.836L257 251.555v116.293h124.754V251.555l100.684-58.13L420.18 85.59l-100.801 58.2zm0 0" fill="#d1aee5"/><path d="m420.18 85.59 62.257 107.836 6.247 10.82 43.218-24.953-12.488-21.621-49.777-86.227-12.59-21.8-43.215 24.953zm-38.426 282.258h-137.23v49.902H394.23v-49.902zm0 0" fill="#b278d3"/><path d="M269.477 417.75h99.804v123.492h-99.804zM469.523 71.234 576.47 9.484l49.902 86.434-106.945 61.742zM12.367 95.922 62.27 9.488l106.94 61.75-49.901 86.43zm0 0" fill="#cff5fd"/></g><path d="M637.074 89.738c-3.437-5.965-11.07-8.011-17.039-4.566l-96.055 55.457-37.304-64.617 95.93-55.39c5.972-3.446 8.011-11.075 4.566-17.044-3.445-5.965-11.07-8.012-17.04-4.566l-95.929 55.39-6.351-10.996c-3.446-5.965-11.075-8.011-17.043-4.566l-43.215 24.953a12.45 12.45 0 0 0-5.813 7.574 12.46 12.46 0 0 0 1.246 9.469l.114.187-83.762 48.36-83.766-48.36.114-.187a12.496 12.496 0 0 0 1.25-9.469 12.47 12.47 0 0 0-5.817-7.574L187.945 38.84c-5.968-3.445-13.597-1.403-17.043 4.566l-6.347 10.996-47.313-27.316c-5.969-3.445-13.601-1.398-17.039 4.566-3.445 5.965-1.406 13.598 4.567 17.043l47.308 27.317-37.312 64.617-96.051-55.457c-5.965-3.445-13.59-1.399-17.043 4.566-3.445 5.965-1.399 13.598 4.566 17.043l96.055 55.457-6.242 10.82c-3.446 5.97-1.406 13.594 4.566 17.04l43.215 24.953a12.446 12.446 0 0 0 9.465 1.246 12.504 12.504 0 0 0 7.578-5.813l.008-.015 83.64 48.289v96.613c-6.89 0-12.476 5.586-12.476 12.477v49.902c0 6.887 5.586 12.473 12.476 12.473H257v111.02c0 6.886 5.582 12.476 12.477 12.476 6.89 0 12.472-5.59 12.472-12.477v-111.02h74.856v111.02c0 6.887 5.582 12.477 12.476 12.477 6.883 0 12.473-5.59 12.473-12.477v-111.02h12.476c6.891 0 12.477-5.585 12.477-12.472v-49.902c0-6.891-5.586-12.477-12.477-12.477v-96.613l83.641-48.29.008.016a12.49 12.49 0 0 0 10.82 6.243c2.113 0 4.258-.543 6.223-1.676l43.215-24.953a12.444 12.444 0 0 0 5.816-7.57c.856-3.2.41-6.606-1.25-9.47l-6.242-10.82 96.055-55.457c5.964-3.445 8.004-11.078 4.558-17.043zm-513.18 84.989 62.376-108.04 21.613 12.477-.11.184c-.003 0-.003 0-.003.004l-.004.007L145.5 187.203zm257.86 230.546H257V380.32h124.754zm-6.238-164.523a12.482 12.482 0 0 0-6.235 10.805V355.37h-37.43v-43.66c0-6.887-5.581-12.477-12.472-12.477-6.895 0-12.477 5.59-12.477 12.477v43.66h-37.425V251.555c0-4.453-2.38-8.575-6.239-10.805l-89.879-51.89 49.782-86.227 90 51.96a12.469 12.469 0 0 0 6.238 1.669c2.152 0 4.305-.555 6.234-1.668l90-51.961 49.782 86.226zm117.734-53.547L430.988 79.36c-.004 0-.004-.007-.004-.007l-.004-.004-.109-.184 21.61-12.476 6.343 10.996 49.781 86.214c0 .008 0 .012.008.012 0 .004.004.004.004.008l6.242 10.816zm-437.781-167a12.42 12.42 0 0 0 6.91 2.094 12.46 12.46 0 0 0 10.39-5.555c3.82-5.73 2.27-13.48-3.46-17.3l-.004-.005c-5.73-3.82-13.48-2.273-17.301 3.465-3.82 5.73-2.266 13.477 3.465 17.301zm0 0"/><path d="M319.379 243.094c-6.895 0-12.477 5.597-12.477 12.48 0 6.895 5.582 12.477 12.477 12.477 6.89 0 12.473-5.582 12.473-12.477v-.008c0-6.886-5.582-12.472-12.473-12.472zm0 0"/></svg>