<svg height="682pt" viewBox="-53 -21 682 682.667" width="682pt" xmlns="http://www.w3.org/2000/svg"><g fill-rule="evenodd"><path d="M10.668 137.504h175.004V12.5H35.668c-13.75 0-25 11.25-25 25zm0 0" fill="#66e0f7"/><path d="M185.672 12.5v125.004h374.996V37.5c0-13.75-11.25-25-25-25zm0 0" fill="#d1aee5"/><path d="M560.668 137.504h-550V602.5c0 13.75 11.25 25 25 25h500c13.75 0 25-11.25 25-25zm-275 76.242c93.203 0 168.754 75.55 168.754 168.754s-75.55 168.758-168.754 168.758S116.906 475.703 116.906 382.5s75.559-168.754 168.762-168.754zm0 0" fill="#e3eaef"/><path d="M179.406 382.5c0-13.2 2.406-25.84 6.809-37.5H121.09a169.234 169.234 0 0 0-4.184 37.5c0 12.89 1.446 25.438 4.184 37.5h65.125c-4.403-11.66-6.809-24.297-6.809-37.5zm0 0" fill="#b278d3"/><path d="M186.215 345c15.16-40.18 53.969-68.754 99.453-68.754 58.68 0 106.254 47.574 106.254 106.254 0 58.688-47.574 106.258-106.254 106.258-45.484 0-84.297-28.578-99.453-68.758H121.09c17.05 75.156 84.265 131.258 164.578 131.258 93.203 0 168.754-75.555 168.754-168.758s-75.55-168.754-168.754-168.754c-80.313 0-147.527 56.102-164.578 131.254zm0 0" fill="#d1aee5"/><path d="M285.668 276.246c-45.484 0-84.297 28.578-99.453 68.754-4.402 11.66-6.809 24.3-6.809 37.5 58.617-33.836 135.395 44.527 212.516 0 0-58.68-47.574-106.254-106.254-106.254zm0 0" fill="#cff5fd"/><path d="M391.922 382.5c-77.121 44.527-153.899-33.836-212.516 0 0 13.203 2.406 25.84 6.809 37.5 15.16 40.18 53.969 68.758 99.453 68.758 58.68 0 106.254-47.57 106.254-106.258zm0 0" fill="#00ccf2"/></g><path d="M535.668 0h-500c-20.68 0-37.5 16.82-37.5 37.5v565c0 20.68 16.82 37.5 37.5 37.5h500c20.672 0 37.5-16.82 37.5-37.5v-565c0-20.68-16.828-37.5-37.5-37.5zm12.5 37.5v87.504H198.172V25h337.496c6.887 0 12.5 5.605 12.5 12.5zM35.668 25h137.504v100.004H23.168V37.5c0-6.895 5.605-12.5 12.5-12.5zm500 590h-500c-6.895 0-12.5-5.605-12.5-12.5V150.004h525V565h-56.246c-6.906 0-12.5 5.594-12.5 12.5 0 6.898 5.594 12.5 12.5 12.5h56.246v12.5c0 6.895-5.613 12.5-12.5 12.5zm0 0"/><path d="M254.422 87.5h68.738c6.906 0 12.5-5.594 12.5-12.5s-5.594-12.5-12.5-12.5h-68.738c-6.906 0-12.5 5.594-12.5 12.5s5.594 12.5 12.5 12.5zm124.988 0h.008c6.902 0 12.5-5.594 12.5-12.5s-5.602-12.5-12.508-12.5c-6.902 0-12.5 5.594-12.5 12.5s5.598 12.5 12.5 12.5zm56.246 0h.012c6.902 0 12.492-5.594 12.492-12.5s-5.597-12.5-12.504-12.5c-6.902 0-12.5 5.594-12.5 12.5s5.602 12.5 12.5 12.5zm56.25 0h.012c6.902 0 12.492-5.594 12.492-12.5s-5.597-12.5-12.504-12.5c-6.902 0-12.5 5.594-12.5 12.5s5.602 12.5 12.5 12.5zM285.668 201.246c-99.95 0-181.262 81.309-181.262 181.254s81.313 181.258 181.262 181.258c99.945 0 181.254-81.313 181.254-181.258s-81.309-181.254-181.254-181.254zm-93.426 188.895c21.453-8.516 46.828-1.551 75.778 6.398 22.066 6.059 45.765 12.57 70.347 12.566 12.735 0 25.703-1.761 38.797-6.218-9.328 41.922-46.8 73.37-91.496 73.37-49.129 0-89.52-37.98-93.426-86.116zm82.399-17.711c-26.98-7.407-54.692-15.008-80.797-8.91 8.8-42.63 46.629-74.774 91.824-74.774 49.21 0 89.66 38.121 93.441 86.379-34.613 16.48-70.093 6.75-104.468-2.695zm-107.73 10.343v.098c.03 8.45.944 16.684 2.651 24.629h-38.144a156.533 156.533 0 0 1-2.012-25c0-8.508.696-16.855 2.012-25h38.144a118.797 118.797 0 0 0-2.656 25c0 .094.004.18.004.273zm118.757 155.985c-68.684 0-127.16-44.54-148.059-106.258h40.352c18.91 40.57 60.074 68.758 107.707 68.758 65.48 0 118.754-53.274 118.754-118.758v-.27c-.004-.035 0-.066-.004-.101-.203-65.313-53.395-118.383-118.75-118.383-47.633 0-88.797 28.188-107.707 68.758h-40.352c20.899-61.719 79.375-106.258 148.059-106.258 86.16 0 156.254 70.098 156.254 156.254 0 86.164-70.094 156.258-156.254 156.258zM435.672 565h-.004c-6.906 0-12.5 5.594-12.5 12.5 0 6.898 5.605 12.5 12.504 12.5 6.902 0 12.5-5.602 12.5-12.5 0-6.906-5.598-12.5-12.5-12.5zm0 0"/></svg>